<?xml version="1.0" standalone="no"?>
<!DOCTYPE svg PUBLIC "-//W3C//DTD SVG 20010904//EN"
 "http://www.w3.org/TR/2001/REC-SVG-20010904/DTD/svg10.dtd">
<svg version="1.0" xmlns="http://www.w3.org/2000/svg"
 width="478.000000pt" height="478.000000pt" viewBox="0 0 478.000000 478.000000"
 preserveAspectRatio="xMidYMid meet">
<metadata>
Created by potrace 1.14, written by Peter Selinger 2001-2017
</metadata>
<g transform="translate(0.000000,478.000000) scale(0.100000,-0.100000)"
fill="#000000" stroke="none">
<path d="M2295 4752 c-40 -14 -264 -135 -665 -359 -19 -11 -60 -33 -90 -49
-30 -16 -57 -31 -60 -34 -3 -3 -32 -20 -65 -37 -33 -17 -91 -50 -130 -72 -38
-21 -90 -50 -115 -63 -25 -12 -46 -26 -48 -30 -2 -5 -8 -8 -14 -8 -6 0 -27
-10 -47 -22 -20 -13 -38 -23 -41 -23 -3 0 -16 -8 -30 -16 -14 -9 -137 -78
-275 -154 -137 -76 -277 -154 -310 -173 -101 -60 -153 -127 -179 -232 -9 -33
-12 -338 -12 -1120 1 -1036 2 -1076 20 -1115 11 -22 19 -43 18 -46 -1 -9 71
-83 108 -109 19 -14 53 -35 75 -47 22 -11 56 -30 75 -42 19 -11 51 -29 70 -39
19 -10 72 -39 118 -65 45 -26 104 -59 130 -74 26 -14 79 -44 117 -67 39 -22
73 -40 77 -39 3 2 12 -4 18 -12 7 -8 16 -15 20 -15 4 0 45 -22 91 -48 114 -66
330 -187 409 -230 36 -20 67 -38 70 -41 3 -3 28 -18 55 -32 28 -14 104 -57
170 -94 66 -37 145 -81 175 -98 30 -17 72 -41 92 -54 21 -13 42 -23 48 -23 5
0 10 -4 10 -10 0 -5 5 -10 10 -10 6 0 32 -10 58 -22 38 -18 64 -22 132 -22 87
1 121 5 130 15 3 3 19 12 35 21 38 19 113 60 190 103 33 19 80 45 105 57 25
13 47 26 50 29 3 3 39 24 80 46 114 61 423 232 440 243 8 6 22 13 30 17 8 4
44 24 80 44 36 20 93 52 125 70 33 18 76 42 96 53 40 23 202 112 259 142 19
11 37 22 40 25 3 3 25 16 50 28 65 33 124 65 130 71 3 3 28 17 55 30 28 14 52
28 55 31 3 4 23 16 45 27 53 28 107 78 137 127 24 39 51 121 48 140 -2 6 -1
12 0 15 1 3 3 476 5 1051 3 959 2 1051 -13 1100 -37 119 -83 163 -282 272 -30
16 -80 44 -110 62 -30 18 -98 56 -150 85 -111 62 -119 66 -270 152 -63 36
-137 78 -165 93 -27 16 -117 66 -199 112 -82 45 -153 83 -158 83 -4 0 -8 4 -8
9 0 5 -8 11 -17 14 -19 6 -35 15 -298 164 -383 218 -394 223 -482 228 -48 3
-82 0 -118 -13z m155 -300 c3 -4 21 -15 40 -24 38 -19 117 -63 190 -107 25
-14 56 -32 70 -39 14 -6 32 -16 40 -22 15 -9 196 -111 275 -154 113 -62 162
-91 178 -104 9 -8 17 -12 17 -9 0 4 16 -5 36 -18 20 -14 43 -25 50 -25 8 0 14
-4 14 -10 0 -5 5 -10 10 -10 6 0 40 -18 76 -40 36 -22 69 -40 73 -40 3 0 23
-11 42 -25 20 -13 39 -21 43 -18 3 4 6 1 6 -5 0 -7 5 -12 10 -12 6 0 39 -17
74 -39 35 -21 77 -44 95 -52 17 -8 31 -17 31 -21 0 -5 5 -8 11 -8 6 0 23 -9
39 -20 15 -11 29 -17 32 -14 3 2 11 -2 18 -11 7 -8 16 -15 21 -15 4 0 32 -14
61 -31 29 -18 73 -43 98 -57 135 -74 168 -96 172 -116 3 -18 3 -399 -2 -1727
-1 -384 10 -342 -105 -405 -38 -20 -135 -74 -215 -119 -80 -44 -152 -84 -160
-88 -8 -4 -22 -11 -30 -17 -8 -5 -139 -78 -290 -161 -151 -83 -286 -159 -300
-167 -14 -9 -27 -17 -30 -17 -19 -4 -60 -30 -60 -38 0 -6 -3 -8 -6 -4 -3 3
-23 -4 -43 -17 -20 -12 -65 -38 -101 -58 -159 -86 -205 -112 -211 -121 -3 -5
-8 -7 -10 -6 -4 3 -58 -26 -189 -101 -30 -17 -74 -40 -97 -52 l-41 -21 -112
61 c-61 34 -115 62 -120 62 -6 0 -10 5 -10 10 0 6 -4 10 -9 10 -5 0 -48 22
-96 50 -48 27 -90 50 -95 50 -4 0 -13 7 -20 15 -7 8 -21 15 -30 15 -10 0 -20
4 -22 8 -3 7 -55 38 -163 98 -22 12 -72 40 -112 63 -100 57 -125 71 -318 179
-93 52 -199 111 -235 132 -36 20 -85 48 -110 62 -25 14 -63 35 -85 48 -22 12
-104 59 -183 102 -78 44 -146 88 -152 97 -5 10 -7 434 -6 1045 3 991 4 1028
22 1046 11 9 48 33 84 51 36 19 67 37 70 40 3 4 15 9 27 13 13 4 29 13 35 19
7 7 29 20 48 29 19 10 62 33 95 52 33 19 76 44 95 54 61 33 151 82 278 153 67
38 127 69 132 69 6 0 10 5 10 10 0 6 4 10 9 10 5 0 46 21 92 47 46 26 104 57
129 70 25 14 59 32 75 42 17 10 55 31 85 48 30 16 75 41 100 55 140 79 213
118 221 118 5 0 9 5 9 10 0 6 5 10 10 10 6 0 61 29 123 63 62 35 119 66 127
69 15 5 60 -8 70 -20z"/>
<path d="M3417 3074 c-1 -1 -24 -4 -52 -7 -247 -26 -421 -245 -440 -553 -2
-34 -5 -65 -6 -70 -1 -5 -1 -11 1 -14 1 -4 7 -66 13 -150 1 -14 5 -27 9 -30 3
-3 8 -20 11 -38 9 -53 71 -172 118 -228 47 -53 140 -120 184 -130 6 -2 21 -6
35 -9 84 -22 195 -26 285 -10 62 11 162 64 214 114 54 51 108 121 95 121 -5 0
-4 4 2 8 23 16 65 136 80 232 15 98 7 261 -18 356 -54 201 -165 328 -338 383
-52 17 -183 34 -193 25z m149 -223 c22 -10 51 -27 63 -37 30 -25 81 -99 81
-117 0 -9 4 -17 10 -19 16 -5 32 -105 35 -214 4 -134 -24 -262 -67 -308 -10
-11 -20 -27 -23 -35 -8 -27 -97 -80 -153 -92 -157 -33 -286 45 -343 208 -50
141 -39 357 25 481 43 83 106 133 186 148 13 3 26 7 28 9 9 9 122 -8 158 -24z"/>
<path d="M879 3018 c0 -18 0 -289 -1 -603 l0 -570 23 -2 c80 -5 156 -4 172 2
15 6 17 27 17 234 l0 226 78 1 c68 1 183 9 190 15 1 1 6 2 11 3 5 0 13 4 17 9
4 4 16 7 27 7 25 0 134 66 165 100 104 115 117 338 26 457 -39 51 -64 71 -122
100 -82 40 -152 50 -385 52 l-217 2 -1 -33z m431 -174 c19 -4 38 -8 43 -9 4
-2 10 -3 15 -4 4 0 18 -11 32 -24 83 -73 59 -230 -42 -272 -61 -26 -63 -26
-170 -31 l-98 -4 0 173 c0 96 2 176 5 178 6 7 175 1 215 -7z"/>
<path d="M1900 3030 c0 -11 0 -238 0 -505 0 -267 0 -530 0 -585 l0 -101 103 3
102 3 5 230 5 229 53 1 c44 1 56 -3 76 -25 13 -14 25 -30 27 -35 2 -6 60 -99
128 -208 l123 -197 124 0 123 0 -28 48 c-52 87 -216 337 -223 340 -5 2 -8 8
-8 14 0 6 -11 26 -25 44 -21 28 -37 80 -19 61 9 -9 95 42 137 82 90 86 121
236 80 384 -8 31 -18 57 -22 57 -3 0 -17 17 -30 38 -31 49 -112 101 -186 118
-68 16 -154 22 -337 23 -203 2 -208 1 -208 -19z m467 -189 c85 -23 129 -87
118 -175 -8 -69 -32 -103 -93 -133 -45 -22 -70 -26 -168 -30 l-114 -4 0 178 0
178 108 -1 c59 -1 126 -7 149 -13z"/>
</g>
</svg>
